# xmcd CD database file
# Copyright (C) 1993-1998 Ti Kan
#
# Track frame offsets:
#  182
#  14622
#  26887
#  38115
#  49715
#  62900
#  74525
#  85747
#  99522
#  113255
#  133885
#  149835
#
# Disc length: 2258 seconds
#
# Revision: 1
# Processed by: cddbd v1.4b41PL1 Copyright (c) Steve Scherf et al.
# Submitted via: CDWizzard Release:4.35
#
DISCID=ae08d00c
DTITLE=Various Artist - History of Hi Records Vol. Two
DYEAR=1900
DGENRE=
TTITLE0=I'm Still In Love With You [Al Green]
TTITLE1=I Die A Little Each Day [Otis Clay]
TTITLE2=Breaking Up Somebody's Home [Ann Peebles]
TTITLE3=We Did It [Sly Johnson]
TTITLE4=You Made Me What I Am [Erma Coffee]
TTITLE5=Back For A Taste Of Your Love [Sly Johnson]
TTITLE6=I Can't Stand the Rain [Ann Peebles]
TTITLE7=Call Me [Al Green]
TTITLE8=Take Me to the River [Sly Johnson]
TTITLE9=On the Loose [Hi Rhythm]
TTITLE10=Precious Precious [O. V. Wright]
TTITLE11=Into Something [O. V. Wright]
EXTD=
EXTT0=
EXTT1=
EXTT2=
EXTT3=
EXTT4=
EXTT5=
EXTT6=
EXTT7=
EXTT8=
EXTT9=
EXTT10=
EXTT11=
PLAYORDER=
